<svg width="146" height="98" viewBox="0 0 146 98" fill="none" xmlns="http://www.w3.org/2000/svg">
<path d="M143.811 63.4436L81.1978 97.3132C79.8573 98.0429 78.2041 98.0429 76.8637 97.3269C75.5233 96.611 74.6892 95.2893 74.6892 93.8574L74.6743 78.561C74.5999 78.5472 74.5403 78.5334 74.4956 78.5197C72.9318 78.1204 71.2637 77.666 69.2679 77.1153C62.7594 75.3255 56.0871 73.0124 48.253 69.832C41.4466 67.0646 34.7892 63.4986 28.4742 59.2305C23.9615 56.174 19.7019 52.6631 15.8444 48.7667C5.31463 38.1928 -0.449215 24.1493 0.0273818 10.2297C0.116744 7.79277 0.399723 5.45218 0.682702 3.48334C0.965682 1.52827 2.73803 0.0550697 4.86782 -2.8794e-06C4.8976 -2.8794e-06 4.92739 -2.8794e-06 4.97207 -2.8794e-06C7.05718 -2.8794e-06 8.85931 1.39058 9.23166 3.30435C10.3934 9.38986 12.2551 14.3877 14.9061 18.587C18.2274 23.8326 22.7402 28.2384 27.953 31.3225C32.436 33.9798 37.1721 36.0037 42.4296 37.5457C48.5658 39.3356 55.3275 40.4645 63.102 40.974C66.2445 41.1805 69.6254 41.2906 73.736 41.3044C73.8552 41.3044 74.1233 41.3044 74.4807 41.3044L74.4956 26.8754C74.4956 25.4573 75.3148 24.1355 76.6552 23.4196C77.9807 22.7037 79.6339 22.7036 80.9743 23.4058L143.811 56.5182C145.151 57.2204 145.985 58.5421 146 59.974C145.97 61.3921 145.151 62.7138 143.811 63.4436Z" fill="white"/>
</svg>
