<svg width="62" height="66" viewBox="0 0 62 66" fill="none" xmlns="http://www.w3.org/2000/svg">
<path d="M56.3417 25.3995C55.629 17.1171 50.7546 9.47909 43.9261 4.90374C40.184 2.3965 35.8483 0.857576 31.3981 0.275439C19.1325 -1.32916 6.21448 4.08942 1.58717 16.2071C-2.39069 26.6244 1.53141 36.9664 8.65455 44.8537C11.2251 47.7 11.5815 53.0516 11.5815 56.6567V63.9676C11.5815 65.09 12.4863 66 13.6022 66H39.9041C40.9688 66 41.8486 65.1692 41.9206 64.1009C42.0174 62.6628 42.1764 61.3981 42.1764 61.3981C42.7263 59.026 44.7373 57.1239 49.0138 57.8144C53.5004 58.5383 56.3304 57.1936 56.582 54.189C56.665 53.1978 56.7185 44.7317 56.7185 44.7317C56.9329 44.6086 58.3394 44.3273 60.3894 43.8585C61.9835 43.494 62.5449 41.5034 61.3826 40.347C56.7217 35.7097 56.0966 33.5478 55.9809 33.0825C55.4037 30.7706 56.5508 27.8288 56.3417 25.3995ZM47.6546 22.6318C47.0071 23.4569 46.2695 23.6181 45.8795 23.6397C45.751 23.6468 45.6615 23.7697 45.6965 23.8942C45.8968 24.604 46.1005 26.5591 42.6206 27.3203C39.357 28.0337 37.3834 30.5869 36.0947 31.8835C35.1047 32.8784 33.7655 33.3388 32.4295 33.6412C31.0647 33.9501 29.7124 34.2204 28.6355 35.1958C27.5014 36.2232 25.9019 41.8805 25.6304 42.8639C25.6066 42.9503 25.5284 43.0097 25.4392 43.0097H23.7643C23.6703 43.0097 23.5889 42.9435 23.5695 42.8508L22.7579 38.9897C22.7238 38.8275 14.8558 39.4787 14.2501 35.9464C14.2289 35.8225 14.1044 35.7456 13.9867 35.7883C13.2302 36.0629 10.8031 36.7384 9.49304 34.6967C8.56417 33.2491 8.81089 31.8976 8.9403 31.431C8.96711 31.3344 8.91886 31.2339 8.82718 31.1942C8.15972 30.9055 5.74785 29.5454 6.07488 25.0704C6.33875 21.4633 8.76457 19.8645 8.42542 19.3098C7.44712 17.7097 8.2975 15.0574 10.3018 14.4653C10.3826 14.4415 10.4399 14.3696 10.4475 14.2852L10.5321 13.3449C10.8105 10.0295 15.1418 7.92842 18.0865 9.30676C18.2001 9.35993 18.3351 9.30331 18.3728 9.18328C18.7414 8.00801 19.4855 7.68448 19.6837 7.57232C20.5967 7.05564 21.7823 7.11949 22.7261 7.50912C22.8024 7.54061 22.8894 7.52142 22.9457 7.46081C23.2138 7.1719 24.3134 6.25491 26.1344 6.25491C28.0022 6.25491 28.9516 7.1678 29.2836 7.42339C29.3446 7.4703 29.4266 7.47871 29.495 7.44366C29.9152 7.22755 31.4495 6.53659 32.9856 7.0688C34.1455 7.47127 34.804 8.53309 35.0113 8.9195C35.0556 9.0021 35.1487 9.04427 35.2395 9.0227C35.7903 8.89146 37.6951 8.5235 39.2954 9.25036C40.9866 10.0193 41.5142 11.1304 41.6488 11.5029C41.6761 11.5787 41.7468 11.6295 41.827 11.6327C42.1937 11.6474 43.2056 11.7367 43.8311 12.2653C44.9355 13.1993 44.8276 13.9356 44.7004 14.2507C44.6617 14.3467 44.7045 14.4567 44.797 14.5023C45.3014 14.7511 46.7155 15.5729 47.5927 17.3183C48.8002 19.7228 48.3171 21.7877 47.6546 22.6318Z" fill="white"/>
</svg>
