<svg width="166" height="126" viewBox="0 0 166 126" fill="none" xmlns="http://www.w3.org/2000/svg">
<path d="M52.3945 8.68359C83.6753 -7.81312 123.033 3.13114 140.242 33.1136C157.455 63.0969 146.036 100.82 114.755 117.315C83.473 133.814 44.1201 122.869 26.907 92.8855C9.69462 62.9063 21.1132 25.1827 52.3945 8.684V8.68359Z" fill="#7F81FF" stroke="black" stroke-width="1.25"/>
<path d="M154.734 123.223C164.149 90.9383 167.852 58.1242 164.67 24.6724L69.5128 15.8611C90.6409 46.2785 68.8822 81.9047 59.5793 114.411L154.732 123.225L154.734 123.223Z" fill="#D4EEF3" stroke="black" stroke-width="0.18893"/>
<path d="M152.906 119.355C161.7 89.1996 165.159 58.5489 162.186 27.304L73.306 19.0729C93.0417 47.4822 72.7135 80.7595 64.0286 111.124L152.905 119.355H152.906Z" fill="white" stroke="black" stroke-width="0.175327"/>
<path d="M104.876 80.6054L90.5042 59.5554L78.5833 77.6192L104.876 80.6054V80.6054Z" fill="black" stroke="black" stroke-width="1.25"/>
<path d="M97.9858 70.281L97.8842 70.4051L94.9343 71.1301L95.8408 74.0022L92.8456 74.1069L94.0505 76.7154L90.8276 76.9774L92.3106 79.3677L62.8514 77.2744C52.4837 60.4954 58.1348 50.1028 82.7881 47.0023L97.9858 70.281V70.281Z" fill="#E69138" stroke="black" stroke-width="1.25"/>
<path d="M34.94 18.5131L22.1535 10.7404C20.7623 9.89415 18.917 10.2913 18.0366 11.6264L1.46255 36.7404C0.581782 38.0755 0.996135 39.8458 2.38859 40.6921L15.1755 48.4656C16.5671 49.3118 18.412 48.9142 19.2937 47.5796L35.8665 22.4652C36.7481 21.1301 36.3333 19.3597 34.9413 18.5135L34.94 18.5131Z" fill="#C80505" stroke="black" stroke-width="1.25"/>
<path d="M96.1532 69.1978L96.0524 69.3224L93.102 70.0469L94.0095 72.9187L91.0142 73.0237L92.2183 75.6318L88.9958 75.8943L90.4784 78.2849L61.0192 76.1912C50.6519 59.4122 56.3026 49.0201 80.9559 45.9191L96.1532 69.1978V69.1978Z" fill="#FEBE7C" stroke="black" stroke-width="1.25"/>
<path d="M35.1979 39.9772L35.2064 39.9659L35.4083 40.0888L40.954 31.684L40.8926 31.6467L40.8998 31.6354L40.962 31.6731L45.6676 24.5426L83.1176 47.3077L70.7522 49.8099L77.0462 58.6114L64.9873 58.1291L71.5471 67.92L59.3319 66.8097L59.3815 66.8401L59.3743 66.8519L59.2998 66.8064L59.2634 66.8028L63.6316 77.6691L25.7114 54.7823L29.6717 48.7811L29.5523 48.7081L29.5599 48.6968L29.6793 48.7694L35.4002 40.1001L35.1979 39.9772V39.9772Z" fill="#FF8200" stroke="black" stroke-width="1.25"/>
<path d="M34.9697 39.6852L34.9773 39.6742L35.1606 39.787L40.1908 32.1514L40.1345 32.1169L40.1413 32.1064L40.198 32.1413L44.4651 25.6631L78.5199 46.421L67.2875 48.6777L73.0161 56.691L62.0584 56.2358L68.0299 65.1489L56.7264 64.57L60.8483 74.0039L26.3669 53.1353L29.9586 47.6838L29.8498 47.6169L29.8566 47.6072L29.9653 47.6733L35.1538 39.7979L34.9697 39.6852V39.6852Z" fill="#FFEA00" stroke="black" stroke-width="1.25"/>
<path d="M33.9854 20.0506L22.4632 13.0458C21.2091 12.2835 19.5466 12.6409 18.7526 13.8438L3.81857 36.4722C3.02457 37.6758 3.3983 39.2705 4.65278 40.0332L16.1747 47.0376C17.4287 47.7998 19.0912 47.4424 19.8852 46.2388L34.8192 23.6099C35.6128 22.4063 35.2395 20.8112 33.9854 20.0493V20.0506Z" fill="#E21111" stroke="black" stroke-width="1.25"/>
<path d="M43.6713 25.8963L75.2561 45.4562L66.4878 47.6509L39.7784 31.9838L43.6713 25.8963V25.8963ZM26.3845 52.3957L29.4272 47.9471L55.6643 64.4324L58.9698 71.9714L26.3845 52.3957V52.3957ZM34.9115 39.393L39.4906 32.8012L65.9105 48.618L71.0292 55.5611L61.6045 55.1498L34.9115 39.393V39.393ZM34.2018 40.2385L60.9048 56.2147L65.7751 63.8568L56.443 63.3014L30.4671 47.4379L34.2018 40.2385V40.2385Z" fill="#FFFE7F" stroke="white" stroke-width="0.1375" stroke-miterlimit="79.84"/>
<path d="M45.6946 24.7401C41.5041 21.012 37.4499 18.4749 33.5628 17.3662L13.6523 47.5402C16.9794 50.6334 20.7975 53.2918 25.7845 54.9149L45.6954 24.743L45.6946 24.7401Z" fill="#12100F" stroke="black" stroke-width="1.25"/>
<path d="M43.6842 25.5231C40.2441 22.36 36.8785 20.2457 33.6044 19.3909L15.5527 46.7536C18.2788 49.3827 21.4392 51.6115 25.6326 52.8853L43.6825 25.5235L43.6842 25.5231Z" fill="#3A3732" stroke="black" stroke-width="1.25"/>
</svg>
